<svg clip-rule="evenodd" fill-rule="evenodd" stroke-linejoin="round" stroke-miterlimit="2" viewBox="0 0 3220 1099" xmlns="http://www.w3.org/2000/svg"><g fill="#689625"><path d="m0-19.794c0-14.711-7.667-24.162-21.221-24.162-6.864 0-11.769 1.515-14.979 3.388v64.73h7.758v-19.615c1.783.624 4.725 1.159 7.49 1.159 12.66 0 20.952-9.54 20.952-25.5m-7.846.356c0 12.75-4.994 20.329-14.712 20.329-2.407 0-4.368-.446-5.884-1.07v-37.716c1.872-.801 3.923-1.336 6.865-1.336 10.164 0 13.731 7.579 13.731 19.793" fill-rule="nonzero" transform="matrix(4.16667 0 0 4.16667 162.331379865 995.72579658)"/><path d="m0-48.593c-11.411-.267-15.96.981-20.685 3.39v45.47h7.846v-41.994c2.587-1.695 7.045-2.051 10.967-.891z" fill-rule="nonzero" transform="matrix(4.16667 0 0 4.16667 287.864396958 1015.41331233)"/><path d="m0 .09c0-14.355-5.616-24.965-18.813-24.965-12.927 0-18.722 10.61-18.722 24.965 0 14.088 5.705 24.875 18.812 24.875 13.017 0 18.723-10.787 18.723-24.875m-7.846 0c0 9.629-1.694 19.437-10.877 19.437-9.005 0-10.967-9.719-10.967-19.437 0-9.72 1.784-19.972 10.967-19.972s10.877 10.342 10.877 19.972" fill-rule="nonzero" transform="matrix(4.16667 0 0 4.16667 458.5420335 916.22156631)"/><path d="m0-76.946c0-2.407-2.052-4.369-4.637-4.369-2.586 0-4.636 1.962-4.636 4.369 0 2.318 2.14 4.28 4.636 4.28 2.585 0 4.637-1.872 4.637-4.28m-.713 58.757v-45.294h-7.848v45.83c0 10.431-3.744 14.978-8.826 16.85v5.172c8.56-.981 16.674-8.738 16.674-22.558" fill-rule="nonzero" transform="matrix(4.16667 0 0 4.16667 530.80875798 1080.80086464)"/><path d="m0-2.765c.179-16.048-6.777-23.538-18.278-23.538-11.323 0-19.347 8.472-19.347 24.787 0 17.119 8.826 25.054 21.398 25.054 6.509 0 11.59-1.516 14.533-3.299l-2.051-5.172c-2.496 1.428-6.419 2.765-11.858 2.765-8.649 0-13.73-5.35-14.622-16.227zm-7.489-3.299-23.004 3.478c-.178-13.018 4.994-18.635 11.948-18.635 6.865 0 11.056 4.28 11.056 15.157" fill-rule="nonzero" transform="matrix(4.16667 0 0 4.16667 720.37974297 922.1674044)"/><path d="m0 64.689-20.151-25.589 18.189-22.469h-8.203l-17.118 22.29h-.179v-38.921h-7.667v64.689h7.667v-24.787h.179l18.366 24.787z" fill-rule="nonzero" transform="matrix(4.16667 0 0 4.16667 899.00905254 746.98809759)"/><path d="m0 60.539v-4.993c-.802.178-1.516.358-2.318.358-4.37 0-6.064-3.121-6.064-6.955v-31.295h8.382v-4.905h-8.382v-13.463l-7.846 2.408v11.055h-5.527v4.905h5.527v31.473c0 5.884 3.209 12.126 11.948 12.126 1.962 0 3.387-.446 4.28-.714" fill-rule="nonzero" transform="matrix(4.16667 0 0 4.16667 1007.07580566 763.16311053)"/><path d="m0 48.948v-34.771c0-6.688-4.101-14.177-15.604-14.177-6.686 0-11.589 2.318-14.888 5.796-2.853-3.568-7.311-5.796-14.713-5.796-7.667 0-12.304 1.248-16.673 3.387v45.561h7.846v-42.262c2.587-1.069 4.727-1.604 8.649-1.604 6.955 0 10.521 3.566 10.521 8.916v34.95h7.847v-39.497c2.763-2.942 5.884-4.28 9.896-4.28 6.955 0 9.274 4.369 9.274 9.183v34.594z" fill-rule="nonzero" transform="matrix(4.16667 0 0 4.16667 1420.31363625 812.57565006)"/><path d="m0-57.152c0-2.407-2.05-4.369-4.546-4.369-2.587 0-4.638 1.962-4.638 4.369 0 2.318 2.051 4.28 4.638 4.28 2.496 0 4.546-1.962 4.546-4.28m-.624 13.463h-7.846v48.058h7.846z" fill-rule="nonzero" transform="matrix(4.16667 0 0 4.16667 1610.60962182 998.32579866)"/><path d="m0 48.948v-34.771c0-6.688-4.102-14.177-15.604-14.177-6.686 0-11.589 2.318-14.889 5.796-2.853-3.568-7.311-5.796-14.712-5.796-7.668 0-12.304 1.248-16.673 3.387v45.561h7.846v-42.262c2.587-1.069 4.726-1.604 8.649-1.604 6.954 0 10.521 3.566 10.521 8.916v34.95h7.846v-39.497c2.764-2.942 5.884-4.28 9.897-4.28 6.954 0 9.273 4.369 9.273 9.183v34.594z" fill-rule="nonzero" transform="matrix(4.16667 0 0 4.16667 1917.00986694 812.57565006)"/><path d="m0 48.948v-34.771c0-6.688-4.102-14.177-15.604-14.177-6.687 0-11.589 2.318-14.887 5.796-2.855-3.568-7.313-5.796-14.714-5.796-7.668 0-12.304 1.248-16.673 3.387v45.561h7.847v-42.262c2.587-1.069 4.726-1.604 8.648-1.604 6.955 0 10.522 3.566 10.522 8.916v34.95h7.846v-39.497c2.763-2.942 5.884-4.28 9.897-4.28 6.954 0 9.272 4.369 9.272 9.183v34.594z" fill-rule="nonzero" transform="matrix(4.16667 0 0 4.16667 2220.66427653 812.57565006)"/><path d="m0 .09c0-14.355-5.616-24.965-18.812-24.965-12.928 0-18.724 10.61-18.724 24.965 0 14.088 5.706 24.875 18.813 24.875 13.017 0 18.723-10.787 18.723-24.875m-7.846 0c0 9.629-1.694 19.437-10.877 19.437-9.005 0-10.966-9.719-10.966-19.437 0-9.72 1.784-19.972 10.966-19.972 9.183 0 10.877 10.342 10.877 19.972" fill-rule="nonzero" transform="matrix(4.16667 0 0 4.16667 2415.10193208 916.22156631)"/><path d="m0 14.045c0-14.533-7.579-23.806-18.634-23.806-4.725 0-7.401.981-9.807 2.23v-18.237h-7.759v62.193c2.854 1.872 7.846 3.388 14.355 3.388 14.266 0 21.845-10.343 21.845-25.768m-7.846.269c0 12.126-3.923 20.418-13.821 20.418-2.496 0-4.993-.269-6.774-1.16v-36.825c2.227-1.247 4.278-1.872 7.845-1.872 9.094 0 12.75 8.917 12.75 19.439" fill-rule="nonzero" transform="matrix(4.16667 0 0 4.16667 2603.97708318 854.35485015)"/><path d="m0-57.152c0-2.407-2.05-4.369-4.547-4.369-2.586 0-4.637 1.962-4.637 4.369 0 2.318 2.051 4.28 4.637 4.28 2.497 0 4.547-1.962 4.547-4.28m-.624 13.463h-7.846v48.058h7.846z" fill-rule="nonzero" transform="matrix(4.16667 0 0 4.16667 2679.53964363 998.32579866)"/><path d="m655.494 19.795h7.847v64.69h-7.847z" transform="matrix(-4.16667 0 0 4.16667 5495.1293961 664.50469827)"/><path d="m0-57.152c0-2.407-2.05-4.369-4.546-4.369-2.587 0-4.637 1.962-4.637 4.369 0 2.318 2.05 4.28 4.637 4.28 2.496 0 4.546-1.962 4.546-4.28m-.624 13.463h-7.846v48.058h7.846z" fill-rule="nonzero" transform="matrix(4.16667 0 0 4.16667 2849.81894652 998.32579866)"/><path d="m0-2.765c.178-16.048-6.777-23.538-18.278-23.538-11.324 0-19.349 8.472-19.349 24.787 0 17.119 8.827 25.054 21.398 25.054 6.51 0 11.591-1.516 14.535-3.299l-2.051-5.172c-2.497 1.428-6.419 2.765-11.859 2.765-8.649 0-13.73-5.35-14.623-16.227zm-7.489-3.299-23.004 3.478c-.179-13.018 4.993-18.635 11.947-18.635 6.865 0 11.057 4.28 11.057 15.157" fill-rule="nonzero" transform="matrix(4.16667 0 0 4.16667 3039.4190982 922.1674044)"/><path d="m0 48.948v-34.684c0-6.865-3.925-14.264-17.298-14.264-7.667 0-13.285 1.338-17.565 3.387v45.561h7.845v-42.174c2.497-1.068 4.637-1.692 9.095-1.692 8.203 0 10.075 4.903 10.075 9.362v34.504z" fill-rule="nonzero" transform="matrix(4.16667 0 0 4.16667 3218.2942413 812.57565006)"/><path d="m0 149.843v-116.31c0-17.68-10.773-33.533-43.493-33.533-18.496 0-32.52 3.049-42.884 7.927v141.916h24.794v-131.146c4.677-1.829 8.944-3.048 17.072-3.048 15.651 0 19.714 9.35 19.714 18.29v115.904z" fill-rule="nonzero" transform="matrix(4.16667 0 0 4.16667 1265.81351265 0)"/></g><path d="m0 111.577h-24.797v-77.638c0-8.941-4.063-18.291-19.714-18.291-8.128 0-12.396 1.219-17.073 3.049v92.88h-143.846c2.536-5.716 7.901-7.925 12.833-7.925h106.219v-95.726c10.365-4.878 24.388-7.926 42.884-7.926 32.72 0 43.494 15.853 43.494 33.533z" fill="#9b9b9b" fill-rule="nonzero" transform="matrix(4.16667 0 0 4.16667 855.9590181 159.44179422)"/><path d="m0 111.577v-77.638c0-8.941-4.062-18.291-19.714-18.291-8.128 0-12.396 1.219-17.072 3.049v92.88h-24.794v-103.651c10.364-4.878 24.388-7.926 42.883-7.926 32.721 0 43.494 15.853 43.494 33.533v70.119h358.015c4.932 0 10.297 2.209 12.833 7.925z" fill="#9b9b9b" fill-rule="nonzero" transform="matrix(4.16667 0 0 4.16667 1572.34709121 159.44179422)"/></svg>