<?xml version="1.0" encoding="UTF-8" standalone="no"?>
<!DOCTYPE svg PUBLIC "-//W3C//DTD SVG 1.1//EN" "http://www.w3.org/Graphics/SVG/1.1/DTD/svg11.dtd">
<svg width="100%" height="100%" viewBox="0 0 1180 624" version="1.1" xmlns="http://www.w3.org/2000/svg" xmlns:xlink="http://www.w3.org/1999/xlink" xml:space="preserve" xmlns:serif="http://www.serif.com/" style="fill-rule:evenodd;clip-rule:evenodd;stroke-linejoin:round;stroke-miterlimit:2;">
    <g transform="matrix(1,0,0,1,-496,0)">
        <g id="Ebene-1" serif:id="Ebene 1" transform="matrix(4.16667,0,0,4.16667,0,0)">
            <g transform="matrix(1,0,0,1,303.795,-2.84217e-14)">
                <path d="M0,149.843L0,33.533C0,15.853 -10.773,0 -43.493,0C-61.989,0 -76.013,3.049 -86.377,7.927L-86.377,149.843L-61.583,149.843L-61.583,18.697C-56.906,16.868 -52.639,15.649 -44.511,15.649C-28.86,15.649 -24.797,24.999 -24.797,33.939L-24.797,149.843L0,149.843Z" style="fill:rgb(104,150,37);fill-rule:nonzero;"/>
            </g>
            <g transform="matrix(1,0,0,1,205.43,38.266)">
                <path d="M0,111.577L-24.797,111.577L-24.797,33.939C-24.797,24.998 -28.86,15.648 -44.511,15.648C-52.639,15.648 -56.907,16.867 -61.584,18.697L-61.584,111.577L-205.43,111.577C-202.894,105.861 -197.529,103.652 -192.597,103.652L-86.378,103.652L-86.378,7.926C-76.013,3.048 -61.99,0 -43.494,0C-10.774,0 0,15.853 0,33.533L0,111.577Z" style="fill:rgb(155,155,155);fill-rule:nonzero;"/>
            </g>
            <g transform="matrix(1,0,0,1,377.363,38.266)">
                <path d="M0,111.577L0,33.939C0,24.998 -4.062,15.648 -19.714,15.648C-27.842,15.648 -32.11,16.867 -36.786,18.697L-36.786,111.577L-61.58,111.577L-61.58,7.926C-51.216,3.048 -37.192,0 -18.697,0C14.024,0 24.797,15.853 24.797,33.533L24.797,103.652L382.812,103.652C387.744,103.652 393.109,105.861 395.645,111.577L0,111.577Z" style="fill:rgb(155,155,155);fill-rule:nonzero;"/>
            </g>
        </g>
    </g>
</svg>
